<?xml version="1.0" standalone="no"?><svg xmlns="http://www.w3.org/2000/svg" viewBox="0 0 1440 320"><path fill="#a1c9c8" fill-opacity="1" d="M0,160L34.3,138.7C68.6,117,137,75,206,69.3C274.3,64,343,96,411,122.7C480,149,549,171,617,149.3C685.7,128,754,64,823,53.3C891.4,43,960,85,1029,101.3C1097.1,117,1166,107,1234,112C1302.9,117,1371,139,1406,149.3L1440,160L1440,0L1405.7,0C1371.4,0,1303,0,1234,0C1165.7,0,1097,0,1029,0C960,0,891,0,823,0C754.3,0,686,0,617,0C548.6,0,480,0,411,0C342.9,0,274,0,206,0C137.1,0,69,0,34,0L0,0Z"></path></svg>